<svg id="Capa_1" data-name="Capa 1" xmlns="http://www.w3.org/2000/svg" viewBox="0 0 263.61 850.85"><defs><style>.cls-1{fill:#fff;}</style></defs><path class="cls-1" d="M103.7,117.79a6.49,6.49,0,1,1,7.92,6.32V135a14.3,14.3,0,0,0,28.6,0v-4.44h-6.3a6.94,6.94,0,0,1-6.88-6.08l-3.61-29.1a6.92,6.92,0,0,1,6.88-7.79h2.61a1.43,1.43,0,1,1,0,2.86h-2.61a4.08,4.08,0,0,0-4,4.58l3.61,29.1a4.09,4.09,0,0,0,4,3.57h15.47a4.08,4.08,0,0,0,4-3.57L157,95a4.08,4.08,0,0,0-4-4.58h-3.69a1.43,1.43,0,0,1,0-2.86H153a6.94,6.94,0,0,1,6.88,7.79l-3.61,29.1a7,7,0,0,1-6.88,6.08h-6.31V135a17.16,17.16,0,0,1-34.32,0v-10.9A6.49,6.49,0,0,1,103.7,117.79Z"/><path class="cls-1" d="M131.82,196.27,65.67,158.08V81.69L131.82,43.5,198,81.69v76.39Zm-62.1-40.53,62.1,35.85,62.09-35.85V84L131.82,48.18,69.72,84Z"/><path class="cls-1" d="M112.78,281.7a90.29,90.29,0,0,0,18.41,14.37l.86.49.86-.5a90.13,90.13,0,0,0,18.2-14.64c3.94-4.31,9.12-10.92,8.6-18.52-.54-8.06-7.28-14.15-15.66-14.15l-1,0c-5.32.3-9.28,3.82-11.26,6-2-2.18-6-5.64-11.35-5.86l-.77,0c-8.53,0-15.29,6.18-15.72,14.38h0C103.5,270.91,108.78,277.44,112.78,281.7Zm-.86-6.25h7.81l.92,1a.54.54,0,0,0,.44.18.59.59,0,0,0,.44-.22l.61-.86.69,1.75a.57.57,0,0,0,.54.32.52.52,0,0,0,.5-.39l.52-2.37,1.33,4.2a.55.55,0,0,0,.55.35.54.54,0,0,0,.51-.42l.77-4.87,1.91,11.4a.51.51,0,0,0,.53.41.53.53,0,0,0,.54-.43l2.2-19.14,2.67,12.93a.55.55,0,0,0,1.06,0l.87-4.61.7,3.12a.56.56,0,0,0,1.06,0l.74-3.38.6.78a.52.52,0,0,0,.44.22h10.79c-1,1.35-2.09,2.58-3.08,3.66A86.64,86.64,0,0,1,132,292.59a86.5,86.5,0,0,1-16.76-13.24A49.41,49.41,0,0,1,111.92,275.45Zm-4.59-12h0c.29-5.54,5-11.43,12.93-11.12,5.95.24,10.06,6.06,10.1,6.12l1.43,2.05,1.4-2.07c0-.06,4.11-5.94,10-6.27l.85,0a11.79,11.79,0,0,1,12.25,10.95c.28,4.12-1.62,8.05-3.94,11.35h-11.2L140,273a.59.59,0,0,0-.53-.21.54.54,0,0,0-.45.39l-.46,2.13-.75-3.31a.52.52,0,0,0-.53-.38.52.52,0,0,0-.53.4l-.84,4.49-2.8-13.54a.53.53,0,0,0-.54-.39.51.51,0,0,0-.52.43l-2.16,18.68-1.82-10.89a.51.51,0,0,0-.53-.41.53.53,0,0,0-.54.41l-.93,5.89-1.25-3.94a.54.54,0,0,0-.52-.35h0a.51.51,0,0,0-.51.38l-.58,2.63-.4-1a.53.53,0,0,0-.46-.32.55.55,0,0,0-.5.22l-.8,1.12-.62-.7a.56.56,0,0,0-.42-.18h-8.78C108.94,271.28,107.11,267.49,107.33,263.49Z"/><path class="cls-1" d="M131.82,349,65.67,310.85V234.46l66.15-38.19L198,234.46v76.39Zm-62.1-40.53,62.1,35.85,62.09-35.85V236.8L131.82,201,69.72,236.8Z"/><path class="cls-1" d="M114.06,436.3a17.73,17.73,0,0,0,35.46,0c0-9.79-17.73-39.48-17.73-39.48S114.06,426.51,114.06,436.3Zm3.72,0c0-5.43,7.63-20.74,14-32.06,6.37,11.32,14,26.63,14,32.06a14,14,0,0,1-28,0Z"/><path class="cls-1" d="M133.64,444.75a10.85,10.85,0,0,0,5.67-9.52,1.35,1.35,0,1,1,2.7,0,13.53,13.53,0,0,1-7.08,11.9,1.4,1.4,0,0,1-.65.17,1.37,1.37,0,0,1-1.19-.72A1.34,1.34,0,0,1,133.64,444.75Z"/><path class="cls-1" d="M131.79,501.81,65.64,463.62V387.23L131.79,349l66.15,38.19v76.39Zm-62.1-40.53,62.1,35.85,62.1-35.85V389.57l-62.1-35.85-62.1,35.85Z"/><path class="cls-1" d="M131.79,607.92c33.71-19.55,27.72-55.13,27.72-55.13s-2,1.94-8.18,1.94a37.83,37.83,0,0,1-4.75-.33c-10.37-1.34-14.79-5.93-14.79-5.93s-4.43,4.59-14.8,5.93a37.56,37.56,0,0,1-4.74.33c-6.17,0-8.18-1.94-8.18-1.94S98.08,588.37,131.79,607.92Zm-24.86-50.48a24.86,24.86,0,0,0,5.32.52,39.91,39.91,0,0,0,5.16-.36,33.19,33.19,0,0,0,14.38-5,33.19,33.19,0,0,0,14.38,5,39.79,39.79,0,0,0,5.16.36,24.86,24.86,0,0,0,5.32-.52,56.32,56.32,0,0,1-1.56,15.08C151.8,586,144,596.6,131.79,604.15,108.51,589.68,106.64,566.74,106.93,557.44Z"/><polygon class="cls-1" points="127.89 565.1 135.58 565.1 135.58 572.83 143.31 572.83 143.31 580.52 135.58 580.52 135.58 588.25 127.89 588.25 127.89 580.52 120.16 580.52 120.16 572.83 127.89 572.83 127.89 565.1"/><path class="cls-1" d="M131.79,654.58,65.64,616.39V540l66.15-38.19L197.94,540v76.39ZM69.69,614l62.1,35.86L193.89,614v-71.7l-62.1-35.85-62.1,35.85Z"/><path class="cls-1" d="M120.76,717.82a14.85,14.85,0,0,1,14.81,14H105.94A14.85,14.85,0,0,1,120.76,717.82Z"/><path class="cls-1" d="M135.57,733.45a14.83,14.83,0,0,1-29.63,0Z"/><path class="cls-1" d="M138.58,716.55v28.82a9.53,9.53,0,0,0,19.06,0V716.55a9.54,9.54,0,0,0-19.07,0Zm2,.32a7.49,7.49,0,0,1,15,0v14.61h-15Z"/><path class="cls-1" d="M131.79,807.35l-66.15-38.2V692.77l66.15-38.19,66.15,38.19v76.38ZM69.7,766.81l62.09,35.85,62.1-35.85v-71.7l-62.1-35.85L69.7,695.11Z"/></svg>