<svg id="Capa_1" data-name="Capa 1" xmlns="http://www.w3.org/2000/svg" viewBox="0 0 1032.53 416.37"><defs><style>.cls-1,.cls-2{fill:#fff;}.cls-2{font-size:64.44px;font-family:Chivo-ExtraBold, Chivo;font-weight:800;}.cls-3{letter-spacing:-0.02em;}.cls-4{letter-spacing:-0.03em;}.cls-5{letter-spacing:-0.01em;}</style></defs><path class="cls-1" d="M223.07,143.69a30.84,30.84,0,0,0,2.57-4.41s-1.51-2.9.72-9.93c0,0,2.32-5.95,8.09-5.78s6.46.54,11.78,2.68,9,3.93,9,3.93-.05,2-3.07,2.29a9.42,9.42,0,0,1-5.73,1.24,43.2,43.2,0,0,1-7.25-1.69s-1.56-.17-2.28,2.08-2.06,4.93-4.57,5.56-3.86-.19-5.33,1.92-3.67,5.71-7.27,7.16-3.85,1-3.85,2.39c0,0,1.81-.5,3.61,1.94s2.67,3.51,1.19,4.67-3.44.33-4.76-1.15a7,7,0,0,0-2-1.76l.16-5.57s0-1.45,2-1.5S221.56,145.81,223.07,143.69Z"/><path class="cls-1" d="M172.1,125.43c5.38-2,6.08-2.34,11.85-2.34s7.92,6,7.92,6c2,7.1.44,10,.44,10a30.37,30.37,0,0,0,2.44,4.48c1.45,2.17,4.91,4.17,6.91,4.28s2,1.55,2,1.55v5.57a6.8,6.8,0,0,0-2.06,1.71c-1.37,1.44-3.36,2.22-4.8,1s-.55-2.26,1.32-4.64,3.67-1.84,3.67-1.84c0-1.36-.23-.93-3.78-2.49s-5.66-5.23-7.06-7.37-2.77-1.37-5.27-2.07-3.74-3.43-4.41-5.7S179,131.4,179,131.4a42.72,42.72,0,0,1-7.29,1.48,9.51,9.51,0,0,1-5.7-1.4c-3-.39-3-2.38-3-2.38S166.71,127.42,172.1,125.43Z"/><path class="cls-1" d="M255.73,131.28c.6-.49,2.91.56,2.91.56L277.42,141a1.57,1.57,0,0,1,.79,2.41c-1,1.72-6.55,2.42-11.13.1s-16.4-9-16.4-9l4-1.57,12.1,6.87s3.41.6.85-1.07-11.91-6.7-11.91-6.7S255.13,131.77,255.73,131.28Z"/><path class="cls-1" d="M220.3,151.3a21.16,21.16,0,0,1,2.46-1.38,3.85,3.85,0,0,0,1.85-1.89c.27-.51,4.92,5.21,6,6.76s.26,3.25-3.74,2.59S220.3,151.3,220.3,151.3Z"/><path class="cls-1" d="M225.64,146.1l5.25-4.61c1.31,1.88,8.93,8.38,10.82,10.5a3.16,3.16,0,0,1,.23,4.14c-4.46,1.87-7.73-1.74-7.73-1.74Z"/><path class="cls-1" d="M234.55,142.42s1.64-1.94,2.22-2,2-1.46,2-1.46,10.28,7.63,12,9.24.63,4,.63,4c-2.43,1.49-6.55-.34-6.55-.34Z"/><path class="cls-1" d="M239.68,137.14c-.73-.56.5-2.52.5-2.52a4.51,4.51,0,0,1,2.68.51s12.36,8.24,14.4,9.43,1.15-.67,1.15-.67L245,135.46l4,0s12.35,7.46,14.23,8.61.36,3.79.36,3.79c-2.09,1.89-8.91.25-8.91.25S240.4,137.71,239.68,137.14Z"/><path class="cls-1" d="M160.55,143.41c2.07-1.13,14.67-9,14.67-9a4.51,4.51,0,0,1,2.69-.43s1.17,2,.43,2.54S163,147.08,163,147.08s-6.87,1.44-8.89-.51c0,0-1.45-2.69.46-3.78l14.47-8.19,4,.08-13.61,8S158.48,144.54,160.55,143.41Z"/><path class="cls-1" d="M167,147.27c1.75-1.56,12.25-8.89,12.25-8.89s1.36,1.48,2,1.52,2.16,2,2.16,2l-10.55,9.17s-4.17,1.71-6.55.15C166.21,151.25,165.19,148.83,167,147.27Z"/><path class="cls-1" d="M175.88,151.29c2-2.07,9.75-8.35,11.12-10.18l5.11,4.76-8.8,8s-3.37,3.51-7.78,1.52A3.17,3.17,0,0,1,175.88,151.29Z"/><path class="cls-1" d="M186.92,154.41c1.09-1.52,5.9-7.1,6.16-6.59a3.89,3.89,0,0,0,1.8,2,20.13,20.13,0,0,1,2.41,1.44s-2.69,5.35-6.7,5.89S185.83,155.93,186.92,154.41Z"/><path class="cls-1" d="M140.5,139.28l19-8.62s2.34-1,2.92-.47,0,.74,0,.74-9.47,4.76-12.09,6.36.82,1.09.82,1.09l12.29-6.51,4,1.67s-12,6.36-16.66,8.55-10.14,1.32-11.12-.43A1.56,1.56,0,0,1,140.5,139.28Z"/><circle class="cls-1" cx="209.5" cy="125.43" r="8.99"/><polygon class="cls-1" points="213.04 136.42 211.21 190.03 206.18 188.43 205.95 135.92 213.04 136.42"/><polygon class="cls-1" points="206.53 269.23 208.47 270.38 208.26 276.6 206.56 275.36 206.53 269.23"/><polygon class="cls-1" points="206.45 251.62 209.07 252.78 208.79 261.01 206.49 259.98 206.45 251.62"/><polygon class="cls-1" points="206.37 231.54 209.77 232.33 209.38 243.62 206.41 242.5 206.37 231.54"/><polygon class="cls-1" points="206.24 201.7 210.77 203.04 210.21 219.46 206.31 217.22 206.24 201.7"/><path class="cls-1" d="M210.22,299.92a3.46,3.46,0,0,1-.5-2.67c.23-1.83.58-3-1.19-4.23s-4.31-2.46-6.18-5.13a7.11,7.11,0,0,1-.9-5.77,4,4,0,0,1,3.92,2s-.06,2.65,1.75,3.72,5.21,2.71,5.21,4.88S212.12,298.17,210.22,299.92Z"/><path class="cls-1" d="M214.89,287.11s-.84.45-4-2.13a63.19,63.19,0,0,0-7.67-5.48c-2.43-1.46-4.7-3-4.85-6.39s1.42-5.72,2.47-6.13l2.93,2.95a3.55,3.55,0,0,0-.86,2.65c.27,1.36,2.26,3.59,5.6,6S215.33,284.18,214.89,287.11Z"/><path class="cls-1" d="M217.11,271.19c.56,4.49-2.65,6.56-6.63,6.83a22.32,22.32,0,0,0,1.07-4.93c0-1.7-.43-3.65-6.38-7.12s-7.64-5.15-9.2-9.54.42-7.85,2.23-7.41l4.75,2.39a3.9,3.9,0,0,0-.58,4c.86,2.47,1.56,4.31,7.33,7.31S216.54,266.71,217.11,271.19Z"/><path class="cls-1" d="M211.24,262.36l.33-6.12s2-.36,1.93-1.31-.56-2.11-4.76-4-10-4.21-12.46-5.93-5.58-4.21-5.87-10.24a8,8,0,0,1,5.27-7.88l5.5,3.18s-2.63,2.72-2.82,5.25.48,6.34,7.36,8.89,11.47,3.42,13.26,7.75S220.15,262.73,211.24,262.36Z"/><path class="cls-1" d="M228,241.13c-.81,3.23-2.5,5.59-7.82,8.13,0,0-6.66-4.37-7.81-4.78,0,0,4.33-1.35,5.19-4.83s.83-5.47-5.35-8.65a144.28,144.28,0,0,0-14-6.21c-3.85-1.57-12.87-6.53-13.65-15.19,0,0-.87-5.69,6-10.45,0,0,6.83,1.41,8,1.41a5.41,5.41,0,0,1,2.26.59s-5.35,3.57-5.35,7.14,2.38,5.8,3.42,6.89,2.74,2.93,7.83,5,12.48,4.3,16.84,10S228.76,237.89,228,241.13Z"/><path class="cls-1" d="M221.91,226.1s-7.1-4.83-9-5.57c0,0,8.5-2.69,9.79-8.78s-3.67-8-8.66-9.71a89.7,89.7,0,0,0-18.61-4.41c-6.9-.78-14-2.81-17.55-7.1s-3.86-10.3-.55-13.61,6.6-6.13,14.71-6.44,12.44,2.18,12.33,3.72c0,0,.62,3.36-10,4.26,0,0-6.55.7-8-.49,0,0-1.69.14-2.43,2.79s-.41,4.8,3,5.81a95.85,95.85,0,0,0,12.48,2.67c6.28,1.08,25.06,4,31.5,13.58S232.28,220.25,221.91,226.1Z"/><path class="cls-1" d="M244.13,184.31c-.18,7.43-4.86,10.57-15,13.83a51,51,0,0,0-13.42-7.2,71.11,71.11,0,0,0,11.94-.79c5.33-1,7.1-1.22,7.63-5.33s-3.85-6.71-3.85-6.71a41.68,41.68,0,0,1-9.12,1.09c-4.82,0-8.81-1.41-8.8-4.14,0,0-.73-3,7.41-3.92s8.43.3,12.64,1.06S244.31,176.88,244.13,184.31Z"/><path class="cls-1" d="M204.34,184.91l-.29,3.57c-7.54-.58-11.11-4.23-11.11-4.23Z"/><path class="cls-1" d="M213.47,189.45s.27-4.54.62-4.54h13.39S223.53,190.35,213.47,189.45Z"/><path class="cls-1" d="M218.69,162.53s-.14-1.92,1.36-2.5,2.91-.78,3.78.11L233,169.3s.53.76,0,1l-8.92-.25Z"/><path class="cls-1" d="M221.57,170.47a46.77,46.77,0,0,1-5.63-.17c-1.36-.25-1.8-5.72-1.85-6.75s3.67-.45,3.67-.45.28.6.65,1.54S221.57,170.47,221.57,170.47Z"/><path class="cls-1" d="M197.29,160c1.49.63,1.29,2.54,1.29,2.54L193,169.82h-8.93c-.54-.23,0-1,0-1s8.54-8,9.44-8.89S195.81,159.33,197.29,160Z"/><path class="cls-1" d="M198.8,164.61c.4-.93.7-1.52.7-1.52s3.73-.48,3.65.55-.67,6.48-2,6.7a48.86,48.86,0,0,1-5.64,0S198.4,165.53,198.8,164.61Z"/><path class="cls-1" d="M115.42,153.13c-2.57-2.77-.54-4.18.63-4.33s16.65-5.89,18.76-6.6,2.56-.51,2.81,0c0,0,1.09,1.33-1.06,2s-13.77,5.07-13.77,5.07-1.63,2.3.86,1.87,8.58-3.58,8.58-3.58l7.34-3.16s3-.86,5,.15,2.3,1.49-.55,2.5-17.28,7.29-17.28,7.29S118,155.89,115.42,153.13Z"/><path class="cls-1" d="M124.24,160c-2.77-1.52-2.76-2.3-.59-3.24l25.28-11s1.64-.7,2.26,0,.86,1.45-2.22,2.77-15.25,7.53-15.25,7.53,1,1.13,3.23.16,14.4-7.94,14.4-7.94a3,3,0,0,1,3,.76c1.48,1.4,1.52,1.87.23,2.5s-17,9.32-17,9.32S127,161.47,124.24,160Z"/><path class="cls-1" d="M138.4,165.72c-2.38-2.73,1-4.75,1-4.75L161,149.26c1.12-.6,1.29,0,1.29,0l1.32,4,5.11.73s-16.14,10.93-18.37,12.56S140.78,168.45,138.4,165.72Z"/><path class="cls-1" d="M163.91,170.48c-2.85,2.42-10.15,3.12-11.67,1.56s-.39-4-.39-4l18.8-13.58h2.15l1.36,2.8a23.54,23.54,0,0,1,3.16,0c2,.1,1.84.4,1.84.4S166.75,168.06,163.91,170.48Z"/><path class="cls-1" d="M168.7,174c-2.92-1.13-2.22-3.78-.66-4.87s15.88-13,15.88-13l2,3.64,7.37-1.43L178.88,172S171.63,175.09,168.7,174Z"/><path class="cls-1" d="M248.23,174.85c-3,1.05-10.12-2.24-10.12-2.24l-14-14.17,7.32,1.65,2.06-3.59s14,12.36,15.49,13.5S251.18,173.8,248.23,174.85Z"/><path class="cls-1" d="M264.74,173.41c-1.57,1.52-8.84.61-11.62-1.89s-14.87-13.31-14.87-13.31-.15-.3,1.84-.35a26.83,26.83,0,0,1,3.16.09l1.45-2.75,2.14.06,18.4,14.11S266.3,171.9,264.74,173.41Z"/><path class="cls-1" d="M278.76,167.5c-2.46,2.66-9.78,2.13-11.95.43s-18-13.08-18-13.08l5.13-.59,1.44-3.9s.18-.61,1.29,0l21.27,12.33S281.22,164.84,278.76,167.5Z"/><path class="cls-1" d="M293.08,162.14c-2.81,1.44-13.36.51-13.36.51s-15.5-9.15-16.77-9.81-1.22-1.13.3-2.49a3,3,0,0,1,3.07-.67s12,7.31,14.16,8.35,3.24-.07,3.24-.07-12-6.55-15-8-2.79-2.15-2.14-2.83,2.26.06,2.26.06l24.95,11.69C295.9,159.92,295.89,160.69,293.08,162.14Z"/><path class="cls-1" d="M302.09,155.57c-2.66,2.69-11.35.92-11.35.92s-14.24-6.7-17.06-7.79-2.53-1.56-.47-2.51,5,0,5,0l7.24,3.37s6,3.33,8.48,3.83.91-1.85.91-1.85-11.49-4.7-13.62-5.46-1-2.06-1-2.06c.26-.51.72-.68,2.8.08s17.4,6.94,18.57,7.13S304.74,152.87,302.09,155.57Z"/><text class="cls-2" transform="translate(319.27 223.75)">FE<tspan class="cls-3" x="74.88" y="0">D</tspan><tspan x="118.24" y="0">ER</tspan><tspan class="cls-4" x="200.21" y="0">A</tspan><tspan x="242.87" y="0">L IN</tspan><tspan class="cls-5" x="364.78" y="0">S</tspan><tspan x="405.57" y="0">U</tspan><tspan class="cls-3" x="449.39" y="0">M</tspan><tspan x="511.7" y="0">OS</tspan></text></svg>