<svg id="Capa_1" data-name="Capa 1" xmlns="http://www.w3.org/2000/svg" viewBox="0 0 1376.39 1226.27"><defs><style>.cls-1{opacity:0.25;}.cls-2{fill:#e5e5e5;}</style></defs><g class="cls-1"><path class="cls-2" d="M764.77,267.36a165.06,165.06,0,0,0,13.74-23.64s-8.08-15.52,3.89-53.25c0,0,12.42-31.86,43.36-31s34.64,2.88,63.18,14.38,48.14,21.05,48.14,21.05-.31,10.66-16.47,12.29a50.7,50.7,0,0,1-30.73,6.64c-17.52-2-38.86-9.07-38.86-9.07s-8.34-.87-12.25,11.16-11,26.46-24.5,29.83-20.68-1-28.53,10.27-19.71,30.6-39,38.41-20.66,5.47-20.66,12.79c0,0,9.7-2.64,19.37,10.4s14.31,18.82,6.39,25.07-18.46,1.77-25.56-6.17-10.77-9.48-10.77-9.48l.86-29.83s-.11-7.79,10.65-8S756.65,278.76,764.77,267.36Z"/><path class="cls-2" d="M491.48,169.49c28.86-10.67,32.62-12.55,63.57-12.55s42.45,32.2,42.45,32.2c10.88,38.06,2.35,53.35,2.35,53.35a165.44,165.44,0,0,0,13.06,24c7.79,11.63,26.33,22.38,37.08,22.93s10.42,8.34,10.42,8.34v29.84s-3.73,1.42-11,9.16-18,11.92-25.72,5.43-2.93-12.12,7.11-24.88,19.66-9.83,19.66-9.83c.21-7.32-1.26-5-20.29-13.38s-30.32-28-37.85-39.52-14.84-7.32-28.23-11.09S544,225.11,540.41,213s-11.91-11.5-11.91-11.5-21.54,6.48-39.11,8a50.76,50.76,0,0,1-30.53-7.53c-16.1-2.09-16.1-12.76-16.1-12.76S462.62,180.15,491.48,169.49Z"/><path class="cls-2" d="M939.83,200.87c3.22-2.63,15.61,3,15.61,3L1056.11,253s9.73,3.62,4.23,12.88-35.1,13-59.64.58-87.93-48.35-87.93-48.35l21.58-8.37,64.84,36.8s18.31,3.25,4.55-5.72-63.81-35.94-63.81-35.94S936.62,203.5,939.83,200.87Z"/><path class="cls-2" d="M749.92,308.15a109.47,109.47,0,0,1,13.19-7.36A20.84,20.84,0,0,0,773,290.62c1.46-2.69,26.39,27.95,32,36.27s1.38,17.41-20.06,13.86S749.92,308.15,749.92,308.15Z"/><path class="cls-2" d="M778.55,280.32l28.12-24.72c7,10,47.87,44.9,58,56.28s1.24,22.21,1.24,22.21c-23.93,10-41.45-9.35-41.45-9.35Z"/><path class="cls-2" d="M826.31,260.56s8.76-10.41,11.9-10.53,10.69-7.85,10.69-7.85S904,283.1,913.16,291.73s3.35,21.43,3.35,21.43c-13,8-35.09-1.84-35.09-1.84Z"/><path class="cls-2" d="M853.78,232.28c-3.88-3,2.7-13.52,2.7-13.52,5.9-1.72,14.35,2.71,14.35,2.71S937.13,265.64,948,272s6.17-3.58,6.17-3.58l-71.7-45.17,21.33.2s66.21,40,76.28,46.13S982,290,982,290c-11.17,10.14-47.73,1.34-47.73,1.34S857.67,235.32,853.78,232.28Z"/><path class="cls-2" d="M429.58,265.89c11.09-6.07,78.63-48.31,78.63-48.31s8.57-4.18,14.43-2.3c0,0,6.27,10.67,2.3,13.6s-82.18,56.67-82.18,56.67-36.81,7.73-47.68-2.72c0,0-7.74-14.43,2.51-20.29s77.58-43.91,77.58-43.91l21.33.42-73,43.07S418.5,272,429.58,265.89Z"/><path class="cls-2" d="M463.88,286.59c9.41-8.36,65.66-47.68,65.66-47.68s7.32,8,10.46,8.16,11.58,10.87,11.58,10.87L495,307.08s-22.38,9.2-35.13.84C459.91,307.92,454.47,295,463.88,286.59Z"/><path class="cls-2" d="M511.77,308.13c10.45-11.08,52.27-44.75,59.59-54.58l27.4,25.51-47.18,43.08s-18.07,18.82-41.7,8.16C509.88,330.3,501.31,319.21,511.77,308.13Z"/><path class="cls-2" d="M571,324.86c5.85-8.16,31.65-38.07,33-35.34A20.85,20.85,0,0,0,613.6,300a109.71,109.71,0,0,1,13,7.74s-14.43,28.65-36,31.58S565.09,333,571,324.86Z"/><path class="cls-2" d="M322.1,243.72l102-46.21s12.54-5.23,15.68-2.51-.21,4-.21,4-50.81,25.51-64.82,34.09,4.39,5.85,4.39,5.85L445.06,204l21.33,9S402,247.07,377.1,258.78s-54.37,7.11-59.6-2.3S322.1,243.72,322.1,243.72Z"/><circle class="cls-2" cx="692" cy="169.49" r="48.17"/><polygon class="cls-2" points="711.01 228.4 701.19 515.81 674.21 507.21 672.99 225.74 711.01 228.4"/><polygon class="cls-2" points="676.09 940.39 686.47 946.6 685.34 979.91 676.23 973.25 676.09 940.39"/><polygon class="cls-2" points="675.68 846.02 689.7 852.24 688.19 896.36 675.87 890.82 675.68 846.02"/><polygon class="cls-2" points="675.21 738.37 693.44 742.57 691.37 803.13 675.47 797.11 675.21 738.37"/><polygon class="cls-2" points="674.52 578.38 698.81 585.54 695.8 673.61 674.88 661.57 674.52 578.38"/><path class="cls-2" d="M695.89,1105s-4-4.49-2.72-14.32,3.14-16-6.38-22.69-23.1-13.17-33.14-27.5-4.81-31-4.81-31,14.53-1.77,21,10.67c0,0-.32,14.22,9.41,20s27.91,14.53,27.91,26.14S706,1095.54,695.89,1105Z"/><path class="cls-2" d="M720.88,1036.26s-4.5,2.41-21.54-11.4-28-21.53-41.09-29.38-25.2-16.31-26-34.29,7.63-30.64,13.27-32.83l15.69,15.79s-6.07,6.9-4.6,14.22,12.13,19.23,30,32.3S723.28,1020.58,720.88,1036.26Z"/><path class="cls-2" d="M732.8,950.94c3,24-14.22,35.13-35.55,36.6,0,0,5.75-17.36,5.75-26.45s-2.3-19.56-34.19-38.17-41-27.6-49.35-51.13,2.24-42.08,11.94-39.7l25.48,12.8s-7.74,8.05-3.11,21.27,8.35,23.09,39.3,39.2S729.77,926.9,732.8,950.94Z"/><path class="cls-2" d="M701.33,903.58l1.77-32.83s10.56-1.88,10.36-7-3-11.29-25.52-21.54-53.63-22.58-66.81-31.78-29.9-22.59-31.47-54.89,28.28-42.27,28.28-42.27l29.46,17s-14.09,14.62-15.14,28.18,2.57,34,39.48,47.66,61.48,18.3,71.1,41.51S749.11,905.57,701.33,903.58Z"/><path class="cls-2" d="M790.91,789.76c-4.33,17.34-13.38,30-41.94,43.6,0,0-35.7-23.46-41.82-25.63,0,0,23.2-7.26,27.79-25.88s4.46-29.32-28.69-46.41-54.44-24.86-75.09-33.28-69-35-73.18-81.41c0,0-4.67-30.51,32.38-56,0,0,36.59,7.52,42.84,7.52a29,29,0,0,1,12.11,3.19s-28.69,19.12-28.69,38.25,12.75,31.11,18.36,37,14.66,15.69,41.95,26.91,66.94,23.07,90.27,53.67S795.25,772.42,790.91,789.76Z"/><path class="cls-2" d="M758.52,709.21s-38.06-25.93-48.51-29.9c0,0,45.58-14.43,52.48-47.06s-19.65-42.86-46.42-52.06-62.73-19.45-99.75-23.63-75.07-15.06-94.1-38.06-20.7-55.21-2.93-73,35.34-32.85,78.84-34.51,66.71,11.67,66.08,19.95c0,0,3.35,18-53.64,22.82,0,0-35.13,3.76-43-2.62,0,0-9.1.73-13.07,14.95s-2.2,25.73,16.1,31.16,33.25,8.58,66.92,14.33,134.35,21.54,168.86,72.77S814.14,677.84,758.52,709.21Z"/><path class="cls-2" d="M877.66,485.14c-.94,39.84-26,56.68-80.52,74.13,0,0-33.67-26.09-71.93-38.6,0,0,35.44.88,64-4.23s38.08-6.53,40.9-28.56-20.62-36-20.62-36a224.76,224.76,0,0,1-48.88,5.81c-25.87,0-47.27-7.56-47.23-22.2,0,0-3.91-16.22,39.77-21s45.16,1.62,67.75,5.69S878.6,445.31,877.66,485.14Z"/><path class="cls-2" d="M664.35,488.35l-1.55,19.13c-40.44-3.1-59.59-22.64-59.59-22.64Z"/><path class="cls-2" d="M713.28,512.7s1.43-24.35,3.34-24.35h71.76S767.24,517.54,713.28,512.7Z"/><path class="cls-2" d="M741.28,368.36s-.74-10.27,7.29-13.39,15.61-4.15,20.28.59,49.21,49.11,49.21,49.11,2.81,4.06-.15,5.23L770,408.52Z"/><path class="cls-2" d="M756.73,410.92s-22.9.49-30.21-.87-9.63-30.66-9.9-36.2,19.65-2.4,19.65-2.4,1.5,3.21,3.51,8.23S756.73,410.92,756.73,410.92Z"/><path class="cls-2" d="M626.57,354.55c7.95,3.35,6.9,13.59,6.9,13.59l-29.9,39.32H555.68c-2.93-1.26,0-5.23,0-5.23s45.8-43.08,50.61-47.68S618.62,351.21,626.57,354.55Z"/><path class="cls-2" d="M634.65,379.51c2.16-5,3.74-8.13,3.74-8.13s20-2.56,19.57,3-3.59,34.74-10.93,35.89-30.23,0-30.23,0S632.49,384.47,634.65,379.51Z"/><path class="cls-2" d="M187.64,318c-13.8-14.85-2.93-22.38,3.35-23.21s89.29-31.58,100.58-35.34,13.73-2.76,15.06,0c0,0,5.85,7.11-5.65,10.87s-73.82,27.18-73.82,27.18-8.78,12.34,4.6,10,46-19.2,46-19.2l39.31-17s15.89-4.6,26.77.83,12.34,7.95-2.93,13.39-92.64,39.1-92.64,39.1S201.44,332.8,187.64,318Z"/><path class="cls-2" d="M234.9,354.55c-14.85-8.15-14.77-12.31-3.14-17.35l135.51-58.76s8.78-3.77,12.13,0,4.6,7.73-11.92,14.84-81.77,40.36-81.77,40.36,5.44,6.07,17.36.84,77.16-42.56,77.16-42.56,8.37-3.45,16.31,4.08,8.16,10,1.26,13.38-91.38,50-91.38,50S249.75,362.71,234.9,354.55Z"/><path class="cls-2" d="M310.81,385.5C298.05,370.86,316,360,316,360l115.91-62.78c6-3.26,6.91,0,6.91,0l7.11,21.14,27.39,4s-86.57,58.55-98.49,67.33S323.56,400.14,310.81,385.5Z"/><path class="cls-2" d="M447.57,411c-15.27,13-54.37,16.73-62.53,8.37S383,397.63,383,397.63l100.79-72.77h11.51l7.32,15a135.13,135.13,0,0,1,16.93,0c10.67.56,9.83,2.17,9.83,2.17S462.83,398.05,447.57,411Z"/><path class="cls-2" d="M473.29,429.62c-15.68-6.06-11.92-20.28-3.56-26.13s85.11-69.92,85.11-69.92l10.46,19.52,39.52-7.68-77,73.76S489,435.69,473.29,429.62Z"/><path class="cls-2" d="M899.63,434.43c-15.86,5.61-54.26-12-54.26-12l-74.79-76,39.28,8.82,11-19.22s74.86,66.25,83,72.35S915.48,428.82,899.63,434.43Z"/><path class="cls-2" d="M988.13,426.73c-8.39,8.13-47.37,3.24-62.26-10.16s-79.74-71.34-79.74-71.34-.79-1.63,9.89-1.87a134.58,134.58,0,0,1,16.93.48l7.75-14.76,11.5.33,98.65,75.64S996.52,418.61,988.13,426.73Z"/><path class="cls-2" d="M1063.31,395c-13.17,14.27-52.42,11.46-64.08,2.34s-96.51-70.15-96.51-70.15l27.5-3.15,7.71-20.94s1-3.23,6.9.2l114.06,66.1S1076.48,380.75,1063.31,395Z"/><path class="cls-2" d="M1140.08,366.26C1125,374,1068.45,369,1068.45,369s-83.1-49.05-89.9-52.59-6.52-6.05,1.64-13.34,16.42-3.62,16.42-3.62,64.14,39.2,75.91,44.77,17.37-.33,17.37-.33-64.26-35.12-80.57-42.7S994.38,289.68,997.84,286s12.12.35,12.12.35L1143.72,349C1155.2,354.38,1155.16,358.54,1140.08,366.26Z"/><path class="cls-2" d="M1188.38,331.05c-14.23,14.44-60.82,4.94-60.82,4.94s-76.36-35.89-91.47-41.76-13.56-8.34-2.54-13.46,26.78-.07,26.78-.07l38.81,18.1s32.12,17.84,45.43,20.52,4.89-9.9,4.89-9.9-61.61-25.2-73-29.3-5.33-11-5.33-11c1.4-2.72,3.87-3.66,15,.43s93.27,37.21,99.52,38.23S1202.6,316.6,1188.38,331.05Z"/></g></svg>