<svg id="Capa_1" data-name="Capa 1" xmlns="http://www.w3.org/2000/svg" viewBox="0 0 366.89 310.22"><defs><style>.cls-1{fill:#6357ff;}</style></defs><path class="cls-1" d="M189.94,125.8a14.33,14.33,0,0,0,1.16-2s-.68-1.31.33-4.51c0,0,1-2.7,3.67-2.63a11.19,11.19,0,0,1,5.36,1.22c2.42,1,4.08,1.79,4.08,1.79s0,.9-1.4,1a4.28,4.28,0,0,1-2.6.56,19.52,19.52,0,0,1-3.29-.77s-.71-.07-1,1a3.49,3.49,0,0,1-2.08,2.53c-1.14.28-1.75-.09-2.42.87s-1.67,2.59-3.3,3.25-1.75.46-1.75,1.09c0,0,.82-.23,1.64.88s1.21,1.59.54,2.12-1.56.15-2.16-.52a3.27,3.27,0,0,0-.92-.81l.07-2.52s0-.66.91-.68A5.06,5.06,0,0,0,189.94,125.8Z"/><path class="cls-1" d="M166.77,117.51a11,11,0,0,1,5.39-1.06c2.62,0,3.6,2.73,3.6,2.73.92,3.22.2,4.52.2,4.52a13.41,13.41,0,0,0,1.1,2,5.1,5.1,0,0,0,3.15,2c.91,0,.88.7.88.7v2.53a3.13,3.13,0,0,0-.94.78c-.62.65-1.52,1-2.18.46s-.24-1,.61-2.11,1.66-.83,1.66-.83c0-.62-.1-.43-1.72-1.14a8.11,8.11,0,0,1-3.2-3.35c-.64-1-1.26-.62-2.4-.94s-1.7-1.56-2-2.58-1-1-1-1a19.08,19.08,0,0,1-3.31.67,4.29,4.29,0,0,1-2.59-.63c-1.37-.18-1.37-1.08-1.37-1.08S164.33,118.41,166.77,117.51Z"/><path class="cls-1" d="M204.77,120.17c.28-.22,1.33.25,1.33.25l8.53,4.16a.72.72,0,0,1,.36,1.1c-.47.78-3,1.1-5.06,0s-7.45-4.1-7.45-4.1l1.83-.71L209.8,124s1.56.27.39-.49-5.41-3-5.41-3S204.5,120.39,204.77,120.17Z"/><path class="cls-1" d="M188.68,129.26a8.59,8.59,0,0,1,1.11-.62,1.79,1.79,0,0,0,.85-.86c.12-.23,2.23,2.36,2.71,3.07s.11,1.47-1.7,1.17S188.68,129.26,188.68,129.26Z"/><path class="cls-1" d="M191.1,126.9l2.39-2.09c.59.85,4,3.8,4.91,4.77a1.44,1.44,0,0,1,.11,1.88,3.24,3.24,0,0,1-3.52-.79Z"/><path class="cls-1" d="M195.15,125.23s.74-.88,1-.89.91-.67.91-.67,4.66,3.47,5.44,4.2a1.68,1.68,0,0,1,.29,1.82c-1.1.67-3-.16-3-.16Z"/><path class="cls-1" d="M197.48,122.83c-.33-.26.23-1.15.23-1.15a2,2,0,0,1,1.21.24s5.62,3.74,6.55,4.28.52-.3.52-.3l-6.08-3.83h1.81l6.47,3.91c.85.53.16,1.73.16,1.73-.95.86-4,.11-4,.11S197.81,123.09,197.48,122.83Z"/><path class="cls-1" d="M161.53,125.68c.94-.51,6.66-4.09,6.66-4.09a2,2,0,0,1,1.22-.2s.54.9.2,1.15-7,4.81-7,4.81-3.11.65-4-.24c0,0-.65-1.22.22-1.71s6.57-3.73,6.57-3.73l1.81,0L161,125.36S160.59,126.19,161.53,125.68Z"/><path class="cls-1" d="M164.43,127.43c.8-.7,5.57-4,5.57-4s.62.68.89.69,1,.93,1,.93l-4.79,4.16s-1.9.78-3,.07A1.68,1.68,0,0,1,164.43,127.43Z"/><path class="cls-1" d="M168.49,129.26c.89-.94,4.43-3.79,5-4.63l2.33,2.17-4,3.65a3.25,3.25,0,0,1-3.54.69A1.45,1.45,0,0,1,168.49,129.26Z"/><path class="cls-1" d="M173.51,130.68c.49-.69,2.68-3.23,2.8-3a1.75,1.75,0,0,0,.81.89,8.81,8.81,0,0,1,1.1.65s-1.22,2.43-3.05,2.68S173,131.37,173.51,130.68Z"/><path class="cls-1" d="M152.42,123.8l8.65-3.92s1.06-.44,1.33-.21,0,.34,0,.34-4.31,2.16-5.5,2.89.38.49.38.49l5.58-3,1.81.77s-5.46,2.88-7.57,3.88-4.61.6-5.05-.2A.71.71,0,0,1,152.42,123.8Z"/><circle class="cls-1" cx="183.77" cy="117.51" r="4.08"/><polygon class="cls-1" points="185.38 122.5 184.55 146.86 182.26 146.13 182.16 122.28 185.38 122.5"/><polygon class="cls-1" points="182.42 182.84 183.3 183.37 183.2 186.19 182.43 185.63 182.42 182.84"/><polygon class="cls-1" points="182.38 174.85 183.57 175.37 183.44 179.11 182.4 178.64 182.38 174.85"/><polygon class="cls-1" points="182.34 165.72 183.89 166.08 183.72 171.21 182.37 170.7 182.34 165.72"/><polygon class="cls-1" points="182.29 152.16 184.34 152.77 184.09 160.24 182.32 159.22 182.29 152.16"/><path class="cls-1" d="M184.1,196.79a1.55,1.55,0,0,1-.23-1.21c.1-.83.26-1.36-.54-1.92a9.42,9.42,0,0,1-2.81-2.34,3.25,3.25,0,0,1-.41-2.62,1.83,1.83,0,0,1,1.78.91,2.06,2.06,0,0,0,.8,1.69c.82.49,2.36,1.23,2.36,2.21S185,196,184.1,196.79Z"/><path class="cls-1" d="M186.22,191s-.39.2-1.83-1a28.21,28.21,0,0,0-3.48-2.49c-1.11-.66-2.14-1.38-2.21-2.9a3,3,0,0,1,1.13-2.78l1.33,1.33a1.61,1.61,0,0,0-.39,1.21c.12.62,1,1.63,2.54,2.74S186.42,189.64,186.22,191Z"/><path class="cls-1" d="M187.23,183.74c.25,2-1.21,3-3,3.1a10,10,0,0,0,.49-2.24c0-.77-.19-1.66-2.9-3.24s-3.47-2.33-4.18-4.33.19-3.57,1-3.36l2.16,1.08a1.78,1.78,0,0,0-.26,1.8c.39,1.13.71,2,3.33,3.33S187,181.7,187.23,183.74Z"/><path class="cls-1" d="M184.56,179.73l.15-2.79s.89-.16.88-.59-.26-1-2.17-1.83a49.52,49.52,0,0,1-5.66-2.69,5.48,5.48,0,0,1-2.67-4.65,3.63,3.63,0,0,1,2.4-3.58L180,165a4.92,4.92,0,0,0-1.29,2.39c-.08,1.15.22,2.88,3.35,4s5.21,1.55,6,3.51S188.61,179.89,184.56,179.73Z"/><path class="cls-1" d="M192.15,170.08c-.37,1.47-1.13,2.54-3.55,3.69,0,0-3-2-3.55-2.17,0,0,2-.61,2.36-2.19s.38-2.49-2.43-3.93a67.18,67.18,0,0,0-6.37-2.83c-1.75-.71-5.85-3-6.2-6.89,0,0-.4-2.59,2.74-4.75,0,0,3.1.63,3.63.63a2.48,2.48,0,0,1,1,.27s-2.43,1.62-2.43,3.25a4.45,4.45,0,0,0,1.56,3.13,8.8,8.8,0,0,0,3.55,2.28c2.31,1,5.67,2,7.65,4.55S192.52,168.61,192.15,170.08Z"/><path class="cls-1" d="M189.41,163.25a41.38,41.38,0,0,0-4.12-2.53s3.87-1.23,4.45-4-1.66-3.63-3.93-4.41a41.28,41.28,0,0,0-8.46-2c-3.13-.35-6.36-1.27-8-3.22s-1.76-4.68-.25-6.19a8.6,8.6,0,0,1,6.68-2.92c3.69-.14,5.66,1,5.6,1.69,0,0,.29,1.53-4.54,1.93,0,0-3,.32-3.65-.22,0,0-.77.06-1.1,1.27s-.19,2.18,1.36,2.64a43.34,43.34,0,0,0,5.67,1.21c2.86.49,11.39,1.83,14.31,6.17S194.12,160.59,189.41,163.25Z"/><path class="cls-1" d="M199.5,144.26c-.08,3.38-2.2,4.81-6.82,6.28a23.17,23.17,0,0,0-6.1-3.27,31.44,31.44,0,0,0,5.43-.36c2.42-.43,3.22-.55,3.46-2.42s-1.75-3-1.75-3a19.13,19.13,0,0,1-4.14.49c-2.19,0-4-.64-4-1.88,0,0-.33-1.38,3.37-1.78s3.83.13,5.74.48S199.58,140.89,199.5,144.26Z"/><path class="cls-1" d="M181.42,144.53l-.13,1.62a8.23,8.23,0,0,1-5-1.91Z"/><path class="cls-1" d="M185.57,146.6a9.2,9.2,0,0,1,.28-2.07h6.09S190.14,147,185.57,146.6Z"/><path class="cls-1" d="M188,134.36s-.07-.87.61-1.13,1.33-.35,1.72.05l4.17,4.16s.24.35,0,.44l-4.06-.11Z"/><path class="cls-1" d="M189.25,138a22.74,22.74,0,0,1-2.56-.07c-.62-.12-.81-2.6-.83-3.07s1.66-.2,1.66-.2.13.27.3.69S189.25,138,189.25,138Z"/><path class="cls-1" d="M178.22,133.19a1.17,1.17,0,0,1,.59,1.16l-2.54,3.33h-4.06c-.24-.11,0-.45,0-.45s3.89-3.65,4.29-4S177.55,132.91,178.22,133.19Z"/><path class="cls-1" d="M178.91,135.31c.18-.42.31-.69.31-.69s1.7-.22,1.66.25-.3,2.95-.92,3a21.29,21.29,0,0,1-2.57,0S178.72,135.73,178.91,135.31Z"/><path class="cls-1" d="M141,130.09c-1.17-1.26-.25-1.89.29-2s7.56-2.68,8.52-3,1.16-.23,1.28,0c0,0,.49.6-.48.92s-6.26,2.31-6.26,2.31-.74,1,.39.85a22.46,22.46,0,0,0,3.9-1.63l3.33-1.44a3.7,3.7,0,0,1,2.27.07c.92.46,1.05.67-.25,1.14s-7.85,3.31-7.85,3.31S142.19,131.35,141,130.09Z"/><path class="cls-1" d="M145,133.19c-1.26-.69-1.25-1-.27-1.47l11.49-5s.74-.32,1,0,.39.66-1,1.26-6.93,3.42-6.93,3.42.47.52,1.48.07,6.54-3.6,6.54-3.6a1.32,1.32,0,0,1,1.38.34c.67.64.69.85.1,1.14s-7.74,4.23-7.74,4.23S146.29,133.89,145,133.19Z"/><path class="cls-1" d="M151.46,135.82c-1.08-1.24.44-2.16.44-2.16l9.82-5.32c.51-.28.59,0,.59,0l.6,1.79,2.32.33s-7.34,5-8.35,5.71S152.54,137.06,151.46,135.82Z"/><path class="cls-1" d="M163.05,138c-1.29,1.1-4.61,1.42-5.3.71a1.81,1.81,0,0,1-.17-1.85l8.54-6.16h1l.62,1.27a10.73,10.73,0,0,1,1.44,0c.9,0,.83.18.83.18Z"/><path class="cls-1" d="M165.23,139.56a1.2,1.2,0,0,1-.3-2.22c.71-.5,7.21-5.92,7.21-5.92l.89,1.65,3.35-.65-6.52,6.25S166.56,140.07,165.23,139.56Z"/><path class="cls-1" d="M201.37,140c-1.35.48-4.6-1-4.6-1l-6.34-6.43,3.33.75.93-1.63s6.35,5.61,7,6.13A1.2,1.2,0,0,1,201.37,140Z"/><path class="cls-1" d="M208.87,139.31c-.72.69-4,.28-5.28-.86s-6.76-6-6.76-6-.07-.13.84-.16a10.34,10.34,0,0,1,1.43,0l.66-1.26,1,0,8.36,6.41A1.81,1.81,0,0,1,208.87,139.31Z"/><path class="cls-1" d="M215.24,136.62c-1.12,1.21-4.45,1-5.43.2s-8.18-5.94-8.18-5.94l2.33-.27.65-1.78s.08-.27.59,0l9.66,5.6S216.35,135.41,215.24,136.62Z"/><path class="cls-1" d="M221.74,134.19c-1.27.65-6.07.23-6.07.23s-7-4.16-7.62-4.46-.55-.51.14-1.13a1.34,1.34,0,0,1,1.39-.31s5.44,3.33,6.44,3.8,1.47,0,1.47,0-5.45-3-6.83-3.62-1.26-1-1-1.29,1,0,1,0l11.33,5.31C223,133.18,223,133.53,221.74,134.19Z"/><path class="cls-1" d="M225.84,131.2c-1.21,1.23-5.16.42-5.16.42s-6.47-3-7.75-3.54-1.15-.71-.21-1.14a3.75,3.75,0,0,1,2.27,0l3.28,1.54a22.77,22.77,0,0,0,3.85,1.74c1.13.23.42-.84.42-.84s-5.22-2.14-6.19-2.48-.45-.94-.45-.94c.12-.23.33-.31,1.28,0s7.9,3.15,8.43,3.24S227,130,225.84,131.2Z"/></svg>