<svg id="Capa_1" data-name="Capa 1" xmlns="http://www.w3.org/2000/svg" viewBox="0 0 150.01 126.83"><defs><style>.cls-1{fill:#fff;}</style></defs><path class="cls-1" d="M91.73,34.45H58.28l-16.73,29,16.73,29H91.73l16.73-29ZM90.67,75.81a13.15,13.15,0,0,1-3.69,3,8.79,8.79,0,0,1-3.73.8,16.43,16.43,0,0,1-6-1.82,36.24,36.24,0,0,1-16.48-16,16.21,16.21,0,0,1-1.93-5.31,8.07,8.07,0,0,1,2.32-6.95c.56-.6,1.15-1.18,1.74-1.75a1.34,1.34,0,0,1,2.12,0c1.85,1.83,3.68,3.66,5.51,5.51a1.34,1.34,0,0,1,0,2.16c-1,1-2,2-3,3a2.81,2.81,0,0,0-.29,4.1,40.46,40.46,0,0,0,9,8.84,2.81,2.81,0,0,0,3.92-.33c1-1,1.9-1.92,2.85-2.88s1.54-.9,2.42,0l5.29,5.3A1.4,1.4,0,0,1,90.67,75.81Z"/></svg>